<?xml version="1.0" encoding="utf-8"?>
<!-- Generator: Adobe Illustrator 15.0.0, SVG Export Plug-In . SVG Version: 6.00 Build 0)  -->
<!DOCTYPE svg PUBLIC "-//W3C//DTD SVG 1.1//EN" "http://www.w3.org/Graphics/SVG/1.1/DTD/svg11.dtd">
<svg version="1.1" id="Layer_1" xmlns="http://www.w3.org/2000/svg" xmlns:xlink="http://www.w3.org/1999/xlink" x="0px" y="0px"
	 width="537.14px" height="127.191px" viewBox="0 0 537.14 127.191" enable-background="new 0 0 537.14 127.191"
	 xml:space="preserve">
<g>
	<path fill="#FFFFFF" d="M288.791,92.753l-2.707,2.585c-1.848-1.946-3.909-2.918-6.222-2.918c-1.948,0-3.586,0.668-4.904,1.991
		c-1.331,1.324-2.006,2.965-2.006,4.904c0,1.354,0.299,2.562,0.884,3.605c0.592,1.05,1.43,1.876,2.509,2.476
		c1.08,0.601,2.271,0.893,3.589,0.893c1.12,0,2.142-0.207,3.081-0.623c0.929-0.421,1.95-1.178,3.069-2.288l2.626,2.736
		c-1.502,1.46-2.918,2.48-4.263,3.044c-1.333,0.566-2.86,0.848-4.572,0.848c-3.15,0-5.749-0.998-7.763-3.002
		c-2.006-2.006-3.017-4.571-3.017-7.701c0-2.031,0.465-3.833,1.375-5.407c0.924-1.571,2.226-2.833,3.939-3.792
		c1.711-0.963,3.544-1.439,5.523-1.439c1.683,0,3.295,0.354,4.848,1.064C286.323,90.437,287.672,91.447,288.791,92.753"/>
	<path fill="#FFFFFF" d="M298.827,94.08c1.414,0,2.75,0.359,3.996,1.064c1.247,0.706,2.229,1.671,2.93,2.887
		c0.703,1.216,1.049,2.527,1.049,3.939c0,1.417-0.362,2.738-1.064,3.976c-0.7,1.238-1.653,2.2-2.873,2.898
		c-1.221,0.694-2.563,1.037-4.021,1.037c-2.159,0-3.998-0.764-5.522-2.299c-1.528-1.534-2.286-3.396-2.286-5.589
		c0-2.343,0.854-4.302,2.579-5.872C295.128,94.759,296.865,94.08,298.827,94.08 M298.883,97.628c-1.176,0-2.144,0.41-2.928,1.228
		c-0.772,0.814-1.166,1.861-1.166,3.128c0,1.313,0.38,2.368,1.149,3.183c0.772,0.808,1.753,1.213,2.932,1.213
		c1.177,0,2.154-0.411,2.944-1.231c0.785-0.819,1.162-1.87,1.162-3.164c0-1.288-0.377-2.332-1.149-3.144
		C301.058,98.038,300.075,97.628,298.883,97.628z"/>
	<path fill="#FFFFFF" d="M309.872,94.462h3.771v1.535c0.854-0.717,1.626-1.221,2.328-1.492c0.685-0.286,1.4-0.426,2.129-0.426
		c1.5,0,2.761,0.525,3.799,1.568c0.883,0.879,1.317,2.187,1.317,3.916v9.933h-3.743v-6.588c0-1.798-0.069-2.982-0.239-3.577
		c-0.153-0.589-0.43-1.041-0.841-1.345c-0.393-0.309-0.895-0.465-1.484-0.465c-0.758,0-1.415,0.253-1.961,0.77
		c-0.552,0.509-0.941,1.219-1.152,2.117c-0.096,0.467-0.153,1.488-0.153,3.056v6.034h-3.771L309.872,94.462L309.872,94.462z"/>
	<path fill="#FFFFFF" d="M336.071,96.569l-2.342,2.338c-0.952-0.938-1.807-1.411-2.579-1.411c-0.422,0-0.758,0.087-0.994,0.268
		c-0.238,0.176-0.366,0.405-0.366,0.667c0,0.203,0.086,0.39,0.239,0.562c0.141,0.172,0.52,0.407,1.121,0.699l1.373,0.69
		c1.455,0.718,2.467,1.451,3.001,2.194c0.547,0.747,0.812,1.628,0.812,2.627c0,1.339-0.492,2.449-1.472,3.346
		c-0.981,0.894-2.284,1.337-3.938,1.337c-2.187,0-3.938-0.854-5.257-2.563l2.325-2.528c0.435,0.511,0.966,0.932,1.558,1.246
		c0.591,0.319,1.122,0.477,1.584,0.477c0.491,0,0.896-0.118,1.194-0.358c0.306-0.241,0.459-0.511,0.459-0.83
		c0-0.582-0.546-1.143-1.639-1.698l-1.274-0.63c-2.438-1.231-3.645-2.767-3.645-4.601c0-1.188,0.462-2.205,1.373-3.049
		c0.911-0.841,2.091-1.268,3.517-1.268c0.984,0,1.896,0.218,2.764,0.646C334.737,95.152,335.467,95.767,336.071,96.569"/>
	<polygon fill="#FFFFFF" points="339.771,88.924 343.527,88.924 343.527,94.462 345.767,94.462 345.767,97.718 343.527,97.718 
		343.527,109.497 339.771,109.497 339.771,97.718 337.834,97.718 337.834,94.462 339.771,94.462 	"/>
	<path fill="#FFFFFF" d="M346.917,94.462h3.225v1.895c0.364-0.745,0.826-1.305,1.402-1.695c0.572-0.393,1.219-0.582,1.906-0.582
		c0.491,0,0.992,0.13,1.541,0.383l-1.175,3.256c-0.45-0.223-0.814-0.332-1.096-0.332c-0.588,0-1.077,0.356-1.47,1.073
		c-0.409,0.718-0.603,2.124-0.603,4.227l0.013,0.732v6.078h-3.744V94.462L346.917,94.462z"/>
	<path fill="#FFFFFF" d="M356.829,94.462h3.827v7.245c0,1.406,0.097,2.389,0.277,2.93c0.198,0.553,0.506,0.983,0.938,1.282
		c0.425,0.307,0.956,0.458,1.587,0.458c0.627,0,1.149-0.151,1.595-0.445c0.436-0.307,0.757-0.743,0.972-1.326
		c0.165-0.432,0.236-1.357,0.236-2.774v-7.37h3.783v6.377c0,2.625-0.211,4.419-0.617,5.388c-0.505,1.183-1.262,2.082-2.245,2.708
		c-0.98,0.634-2.24,0.947-3.755,0.947c-1.656,0-2.982-0.365-4.009-1.094c-1.01-0.745-1.723-1.771-2.141-3.089
		c-0.299-0.909-0.449-2.567-0.449-4.972V94.462z"/>
	<path fill="#FFFFFF" d="M388.546,97.509l-3.139,1.723c-0.59-0.618-1.163-1.037-1.735-1.278c-0.576-0.241-1.248-0.359-2.033-0.359
		c-1.402,0-2.552,0.419-3.424,1.261c-0.866,0.839-1.303,1.915-1.303,3.239c0,1.278,0.422,2.322,1.264,3.138
		c0.838,0.811,1.934,1.219,3.294,1.219c1.694,0,2.998-0.583,3.937-1.732l2.971,2.03c-1.607,2.091-3.883,3.134-6.826,3.134
		c-2.634,0-4.706-0.774-6.209-2.343c-1.487-1.566-2.24-3.402-2.24-5.499c0-1.457,0.362-2.799,1.093-4.024
		c0.729-1.219,1.736-2.188,3.043-2.884c1.318-0.699,2.76-1.053,4.386-1.053c1.484,0,2.817,0.296,4.009,0.887
		C386.823,95.562,387.792,96.412,388.546,97.509"/>
	<polygon fill="#FFFFFF" points="392.403,88.924 396.171,88.924 396.171,94.462 398.401,94.462 398.401,97.718 396.171,97.718 
		396.171,109.497 392.403,109.497 392.403,97.718 390.468,97.718 390.468,94.462 392.403,94.462 	"/>
	<path fill="#FFFFFF" d="M401.918,88.273c0.661,0,1.234,0.241,1.698,0.718c0.474,0.485,0.713,1.064,0.713,1.743
		c0,0.676-0.239,1.249-0.697,1.719c-0.48,0.475-1.038,0.713-1.685,0.713c-0.675,0-1.248-0.244-1.725-0.725
		c-0.474-0.485-0.715-1.073-0.715-1.758c0-0.664,0.241-1.237,0.699-1.705C400.688,88.514,401.246,88.273,401.918,88.273
		 M400.027,94.462h3.786v15.035h-3.786V94.462z"/>
	<path fill="#FFFFFF" d="M414.279,94.08c1.419,0,2.751,0.359,3.998,1.064c1.245,0.706,2.229,1.671,2.929,2.887
		c0.702,1.216,1.05,2.527,1.05,3.939c0,1.417-0.361,2.738-1.064,3.976c-0.697,1.238-1.669,2.2-2.872,2.898
		c-1.222,0.694-2.563,1.037-4.021,1.037c-2.161,0-4.012-0.764-5.523-2.299c-1.529-1.534-2.286-3.396-2.286-5.589
		c0-2.343,0.857-4.302,2.579-5.872C410.582,94.759,412.303,94.08,414.279,94.08 M414.325,97.628c-1.165,0-2.133,0.41-2.918,1.228
		c-0.771,0.814-1.161,1.861-1.161,3.128c0,1.313,0.376,2.368,1.146,3.183c0.771,0.808,1.755,1.213,2.932,1.213
		c1.175,0,2.16-0.411,2.943-1.231c0.784-0.819,1.165-1.87,1.165-3.164c0-1.288-0.381-2.332-1.152-3.144
		C416.511,98.038,415.53,97.628,414.325,97.628z"/>
	<path fill="#FFFFFF" d="M425.341,94.462h3.741v1.535c0.868-0.717,1.641-1.221,2.343-1.492c0.686-0.286,1.402-0.426,2.131-0.426
		c1.487,0,2.764,0.525,3.801,1.568c0.884,0.879,1.304,2.187,1.304,3.916v9.933h-3.731v-6.588c0-1.798-0.071-2.982-0.241-3.577
		c-0.153-0.589-0.431-1.041-0.841-1.345c-0.393-0.309-0.893-0.465-1.485-0.465c-0.769,0-1.414,0.253-1.96,0.77
		c-0.563,0.509-0.939,1.219-1.148,2.117c-0.1,0.467-0.172,1.488-0.172,3.056v6.034h-3.741L425.341,94.462L425.341,94.462z"/>
	<path fill="#FFFFFF" d="M451.512,96.569l-2.326,2.338c-0.94-0.938-1.811-1.411-2.582-1.411c-0.422,0-0.757,0.087-0.995,0.268
		c-0.238,0.176-0.365,0.405-0.365,0.667c0,0.203,0.088,0.39,0.227,0.562c0.153,0.172,0.531,0.407,1.134,0.699l1.373,0.69
		c1.46,0.718,2.468,1.451,3.001,2.194c0.546,0.747,0.826,1.628,0.826,2.627c0,1.339-0.492,2.449-1.468,3.346
		c-0.999,0.894-2.299,1.337-3.956,1.337c-2.187,0-3.938-0.854-5.257-2.563l2.329-2.528c0.431,0.511,0.952,0.932,1.554,1.246
		c0.592,0.319,1.121,0.477,1.583,0.477c0.491,0,0.896-0.118,1.194-0.358c0.307-0.241,0.462-0.511,0.462-0.83
		c0-0.582-0.55-1.143-1.641-1.698l-1.272-0.63c-2.44-1.231-3.647-2.767-3.647-4.601c0-1.188,0.464-2.205,1.373-3.049
		c0.912-0.841,2.091-1.268,3.521-1.268c0.979,0,1.891,0.218,2.747,0.646C450.191,95.152,450.92,95.767,451.512,96.569"/>
	<path fill="#FFFFFF" d="M226.294,41.762c0.684-0.838,1.553-1.254,2.579-1.254c0.923,0,1.707,0.328,2.367,0.975
		c0.645,0.651,0.968,1.441,0.968,2.367c0,0.839-0.239,1.508-0.702,2.022l-0.07,0.069l-16.847,22.708
		c-0.841,1.065-1.894,1.939-3.17,2.612c-1.275,0.672-2.664,1.008-4.147,1.008c-1.387,0-2.706-0.302-3.94-0.902
		c-1.23-0.608-2.255-1.441-3.098-2.51l-16.916-22.631c-0.281-0.329-0.519-0.688-0.702-1.086c-0.181-0.392-0.281-0.82-0.281-1.288
		c0-0.927,0.326-1.716,0.983-2.367c0.643-0.646,1.43-0.975,2.368-0.975c1.107,0,1.991,0.447,2.637,1.327l16.231,21.663
		c0.332,0.374,0.727,0.778,1.219,1.211c0.488,0.447,0.992,0.667,1.498,0.667c0.503,0,1.011-0.22,1.502-0.667
		c0.487-0.434,0.866-0.838,1.15-1.211L226.294,41.762z"/>
	<path fill="#FFFFFF" d="M238.123,69.619c-0.69,0.839-1.557,1.255-2.567,1.255c-0.941,0-1.725-0.322-2.371-0.971
		c-0.657-0.654-0.978-1.445-0.978-2.371c0-0.835,0.239-1.511,0.699-2.018l16.919-22.779c0.8-1.066,1.834-1.934,3.138-2.607
		c1.302-0.679,2.693-1.013,4.18-1.013c1.385,0,2.717,0.304,3.963,0.908c1.261,0.601,2.287,1.438,3.068,2.51l16.921,22.637
		c0.281,0.317,0.52,0.682,0.7,1.077c0.185,0.389,0.278,0.823,0.278,1.284c0,0.927-0.319,1.717-0.979,2.371
		c-0.645,0.648-1.431,0.971-2.371,0.971c-1.106,0-1.987-0.435-2.633-1.324L259.86,47.895c-0.325-0.371-0.73-0.775-1.222-1.222
		c-0.489-0.437-0.996-0.66-1.496-0.66c-0.506,0-1.01,0.223-1.502,0.66c-0.492,0.447-0.869,0.851-1.149,1.222L238.123,69.619z"/>
	<path fill="#FFFFFF" d="M293.991,59.171c0,0.654,0.184,1.27,0.549,1.852c0.377,0.579,0.881,1.112,1.5,1.598
		c0.63,0.489,1.371,0.875,2.229,1.149c0.87,0.28,1.779,0.416,2.757,0.416h28.063c1.529,0,2.804-0.253,3.8-0.763
		c0.995-0.511,1.795-1.162,2.368-1.952c0.576-0.785,0.996-1.647,1.249-2.573c0.266-0.929,0.392-1.81,0.392-2.645V43.85
		c0-0.927,0.339-1.716,1.011-2.371c0.67-0.642,1.441-0.971,2.326-0.971c0.921,0,1.722,0.329,2.367,0.971
		c0.661,0.655,0.98,1.445,0.98,2.371V55.69c0,1.768-0.304,3.544-0.908,5.333c-0.606,1.786-1.472,3.415-2.609,4.875
		c-1.134,1.465-2.521,2.66-4.146,3.586c-1.626,0.931-3.433,1.391-5.427,1.391h-31.48c-1.583,0-3.083-0.325-4.499-0.971
		c-1.416-0.654-2.665-1.523-3.729-2.615c-1.061-1.089-1.906-2.344-2.536-3.759c-0.63-1.418-0.938-2.866-0.938-4.358
		c0-0.927,0.336-1.713,1.012-2.363c0.668-0.651,1.441-0.973,2.326-0.973c0.925,0,1.722,0.323,2.367,0.973
		C293.669,57.458,293.991,58.244,293.991,59.171"/>
	<path fill="#FFFFFF" d="M395.33,59.035c1.249,0.79,2.525,1.641,3.828,2.54c1.303,0.909,2.617,1.897,3.966,2.968
		c0.52,0.371,0.953,0.794,1.331,1.285c0.38,0.487,0.546,1.056,0.546,1.703c0,0.927-0.32,1.717-0.966,2.371
		c-0.646,0.646-1.441,0.971-2.371,0.971c-0.784,0-1.584-0.325-2.368-0.971c-1.906-1.391-3.854-2.745-5.857-4.041
		c-1.991-1.301-4.063-2.465-6.224-3.484c-2.158-1.017-4.4-1.834-6.725-2.435c-2.313-0.608-4.727-0.908-7.233-0.908h-13.863
		c-0.604,0.093-1.122,0.372-1.528,0.839c-0.42,0.461-0.631,1.044-0.631,1.739v5.918c0,0.927-0.335,1.717-1.008,2.371
		c-0.673,0.646-1.456,0.971-2.341,0.971c-0.926,0-1.711-0.325-2.367-0.971c-0.646-0.654-0.969-1.445-0.969-2.371v-6.686
		c0-1.156,0.21-2.26,0.658-3.303c0.437-1.048,1.037-1.956,1.778-2.721c0.745-0.765,1.63-1.371,2.637-1.809
		c1.024-0.443,2.145-0.666,3.352-0.666h36.92c0.686,0,1.304-0.242,1.834-0.734c0.534-0.479,0.8-1.101,0.8-1.84
		c0-0.697-0.266-1.299-0.8-1.815c-0.53-0.509-1.148-0.764-1.834-0.764h-42.01c-0.926,0-1.711-0.325-2.367-0.97
		c-0.646-0.655-0.97-1.449-0.97-2.374c0-0.927,0.323-1.716,0.97-2.367c0.656-0.646,1.441-0.975,2.367-0.975h41.726
		c1.288,0,2.51,0.247,3.659,0.73c1.137,0.492,2.13,1.148,2.987,1.984c0.856,0.839,1.528,1.811,2.018,2.927
		c0.489,1.119,0.728,2.326,0.728,3.625c0,1.3-0.237,2.51-0.728,3.617c-0.488,1.119-1.161,2.093-2.018,2.929
		c-0.857,0.836-1.85,1.497-2.987,1.982c-1.149,0.491-2.371,0.733-3.659,0.733L395.33,59.035L395.33,59.035z"/>
	<path fill="#FFFFFF" d="M417.899,69.619c-0.702,0.839-1.56,1.255-2.579,1.255c-0.926,0-1.725-0.322-2.37-0.971
		c-0.646-0.654-0.978-1.445-0.978-2.371c0-0.835,0.234-1.511,0.697-2.018L429.6,42.736c0.787-1.066,1.841-1.934,3.129-2.607
		c1.303-0.679,2.69-1.013,4.175-1.013c1.402,0,2.721,0.304,3.97,0.908c1.261,0.601,2.283,1.438,3.066,2.51l16.933,22.637
		c0.283,0.317,0.506,0.682,0.688,1.077c0.196,0.389,0.295,0.823,0.295,1.284c0,0.927-0.335,1.717-0.982,2.371
		c-0.646,0.648-1.443,0.971-2.368,0.971c-1.124,0-2.003-0.435-2.651-1.324l-16.229-21.654c-0.322-0.371-0.728-0.775-1.219-1.222
		c-0.492-0.437-0.984-0.66-1.502-0.66c-0.504,0-1.008,0.223-1.496,0.66c-0.478,0.447-0.872,0.851-1.149,1.222L417.899,69.619z"/>
	<path fill="#FFFFFF" d="M527.592,67.531c0,0.927-0.323,1.717-0.969,2.371c-0.658,0.646-1.442,0.971-2.38,0.971
		c-0.925,0-1.71-0.325-2.358-0.971c-0.659-0.654-0.979-1.445-0.979-2.371V52.348c0-1.9-0.114-2.854-0.353-2.854
		c-0.181,0-0.827,0.628-1.948,1.882l-15.316,17.411c-0.604,0.696-1.346,1.218-2.229,1.567c-0.884,0.351-1.839,0.52-2.859,0.52
		c-1.025,0-1.976-0.169-2.849-0.52c-0.896-0.35-1.624-0.871-2.24-1.567l-15.32-17.411c-1.065-1.254-1.707-1.882-1.95-1.882
		c-0.224,0-0.35,0.953-0.35,2.854v15.184c0,0.927-0.319,1.717-0.964,2.371c-0.662,0.646-1.445,0.971-2.372,0.971
		c-0.926,0-1.723-0.325-2.368-0.971c-0.646-0.654-0.983-1.445-0.983-2.371V47.196c0-1.855,0.534-3.435,1.602-4.735
		c1.077-1.296,2.533-1.952,4.386-1.952c1.12,0,2.114,0.281,2.999,0.836c0.883,0.554,1.698,1.233,2.439,2.018l16.021,18.251
		c0.236,0.23,0.515,0.479,0.868,0.734c0.35,0.253,0.715,0.376,1.08,0.376c0.376,0,0.742-0.124,1.08-0.376
		c0.35-0.254,0.642-0.503,0.868-0.734l15.951-18.251h0.068c0.659-0.881,1.442-1.576,2.369-2.082c0.926-0.52,1.952-0.772,3.068-0.772
		c1.866,0,3.322,0.655,4.389,1.952c1.067,1.3,1.598,2.881,1.598,4.735L527.592,67.531L527.592,67.531z"/>
	<path fill="#5C5C5C" d="M3.959,37.525c0,0.846-0.032,1.742-0.019,2.573c0.019,1.234,0.134,1.102,0.817,1.75
		c4.396,4.193,8.533,8.663,12.803,12.976c4.48,4.525,9.153,8.925,13.473,13.604c5.097,5.525,10.783,10.556,15.881,16.081
		c5.051,5.451,10.493,10.566,15.639,15.916c0.326,0.333,0.277,0.217,0.652,0.635c3.421,3.93,7.331,7.438,11.028,11.134
		c0.897,0.904,1.647,1.654,2.56,2.557c0.486,0.482,0.731,0.831,1.206,1.354c0.03,0.034,0.077,0.08,0.094,0.112
		c0.035,0.032,0.084,0.076,0.116,0.108c0.032,0.033,0.065,0.073,0.098,0.107l1.613,1.595c4.984,5.1,3.939,5.965,7.639,2.272
		l17.367-17.592c6.727-6.731,13.191-13.416,19.92-20.147c1.679-1.676,3.421-3.281,5.017-5.006l2.331-2.56
		c4.173-4.146,8.636-8.267,12.562-12.597c0.032-0.027,0.081-0.077,0.115-0.108l1.157-1.186c1.335-1.41,18.405-18.187,18.405-19.103
		V39.87h-54.345c0,2.413,1.206,2.353,2.934,4.098c0.701,0.712,2.852,2.447,3.029,3.145c-0.961,0.264-1.322,1.011-1.953,1.658
		c-3.373,3.365-6.422,7.135-10.068,10.188c-0.031,0.032-0.084,0.069-0.115,0.098s-0.077,0.066-0.111,0.095
		c-0.049,0.039-0.197,0.158-0.246,0.196c-3.028,2.59-10.569,10.598-14.696,14.5l-0.746,0.747c-0.897,0.908-2.412,1.739-2.737,3.011
		c-0.635-0.421-9.771-10.002-9.802-10.032c-2.612-2.978-5.722-5.529-8.327-8.51c-0.214-0.237-0.245-0.294-0.49-0.582
		c-2.135-2.517-4.726-4.676-6.91-7.15c-1.413-1.613-3.105-3.025-4.558-4.613c-0.032-0.035-0.063-0.081-0.099-0.112
		c-0.487-0.537-0.916-0.774-1.371-1.41c0.72-0.964,3-2.559,4.012-3.46c0.424-0.375,0.519-0.371,0.942-0.75
		c0.438-0.393,0.555-0.547,1.027-0.904l4.007-3.442c1.06-0.858,0.912-1.062,2.805-1.041c12.575,0.151,25.149,0.007,37.726,0.007
		h60.095c-0.082-1.052-1.158-1.542-1.922-2.131c-6.37-4.971-13.749-11.421-20.182-16.676c-0.981-0.793-13.017-11.036-13.704-11.036
		H41.035c-1.287,0-2.703,1.896-3.714,2.68L35.026,10.4c-0.458,0.401-0.589,0.624-1.11,1.025c-1.221,0.949-2.198,2.014-3.391,3.014
		l-3.399,2.986c-0.522,0.431-0.656,0.459-1.157,0.964l-9.171,8.098c-2.479,2.205-5.848,4.75-8.099,7.04
		C8.033,34.198,4.58,37.353,3.959,37.525"/>
	<path fill="#E12227" d="M3.959,37.525c0,0.846-0.032,1.742-0.019,2.573c0.019,1.234,0.134,1.102,0.817,1.75
		c4.396,4.193,8.533,8.663,12.803,12.976c4.48,4.525,9.153,8.925,13.473,13.604c5.097,5.525,10.783,10.556,15.881,16.081
		c5.051,5.451,10.493,10.566,15.639,15.916c0.326,0.333,0.277,0.217,0.652,0.635c3.421,3.93,7.331,7.438,11.028,11.134
		c0.897,0.904,1.647,1.654,2.56,2.557c0.486,0.482,0.731,0.831,1.206,1.354c0.03,0.034,0.077,0.08,0.094,0.112
		c0.035,0.028,0.084,0.076,0.116,0.108c0.032,0.033,0.065,0.073,0.098,0.107l1.613,1.595c4.984,5.1,3.939,5.965,7.639,2.272
		l0.685-0.698v-45.13l-0.13,0.123c-0.897,0.908-2.412,1.739-2.737,3.011c-0.635-0.421-9.771-10.002-9.802-10.032
		c-2.612-2.978-5.722-5.529-8.327-8.506c-0.214-0.24-0.245-0.297-0.49-0.585c-2.135-2.517-4.727-4.676-6.91-7.15
		c-1.413-1.613-3.105-3.025-4.558-4.613c-0.032-0.035-0.063-0.081-0.099-0.112c-0.487-0.537-0.897-0.774-1.371-1.41
		c0.72-0.964,3-2.559,4.012-3.46c0.424-0.375,0.519-0.371,0.942-0.75c0.438-0.393,0.555-0.547,1.027-0.904l4.007-3.442
		c1.06-0.858,0.912-1.062,2.805-1.041c7.197,0.087,14.415,0.081,21.631,0.052V5.76H41.035c-1.287,0-2.703,1.896-3.714,2.68
		l-2.296,1.958c-0.458,0.401-0.589,0.624-1.11,1.025c-1.221,0.949-2.198,2.014-3.391,3.014l-3.399,2.986
		c-0.522,0.431-0.656,0.459-1.157,0.964l-9.171,8.098c-2.479,2.205-5.848,4.75-8.099,7.04C8.033,34.198,4.58,37.353,3.959,37.525"/>
	<path fill="#FFFFFF" d="M161.76,7.849c-1.009-1.01-2.412-1.634-3.944-1.634c-1.545,0-2.944,0.624-3.939,1.634v0.003
		c-1.01,1.004-1.648,2.398-1.648,3.938s0.639,2.935,1.648,3.939c0.995,1.011,2.395,1.63,3.939,1.63c1.532,0,2.936-0.621,3.944-1.63
		c0.992-1.006,1.63-2.4,1.63-3.939C163.391,10.251,162.752,8.854,161.76,7.849z M157.816,5.295c1.792,0,3.404,0.729,4.579,1.904
		v0.003c1.175,1.174,1.907,2.796,1.907,4.587s-0.718,3.415-1.907,4.589v0.003c-1.175,1.174-2.787,1.896-4.579,1.896
		c-1.791,0-3.418-0.722-4.593-1.896c-1.174-1.178-1.907-2.801-1.907-4.593c0-1.795,0.733-3.413,1.907-4.591
		C154.398,6.024,156.025,5.295,157.816,5.295z"/>
	<path fill="none" stroke="#444343" stroke-width="0.216" stroke-miterlimit="2.6131" d="M161.76,7.849
		c-1.009-1.01-2.412-1.634-3.944-1.634c-1.545,0-2.944,0.624-3.939,1.634v0.003c-1.01,1.004-1.648,2.398-1.648,3.938
		s0.639,2.935,1.648,3.939c0.995,1.011,2.395,1.63,3.939,1.63c1.532,0,2.936-0.621,3.944-1.63c0.992-1.006,1.63-2.4,1.63-3.939
		C163.391,10.251,162.752,8.854,161.76,7.849z M157.816,5.295c1.792,0,3.404,0.729,4.579,1.904v0.003
		c1.175,1.174,1.907,2.796,1.907,4.587s-0.718,3.415-1.907,4.589v0.003c-1.175,1.174-2.787,1.896-4.579,1.896
		c-1.791,0-3.418-0.722-4.593-1.896c-1.174-1.178-1.907-2.801-1.907-4.593c0-1.795,0.733-3.413,1.907-4.591
		C154.398,6.024,156.025,5.295,157.816,5.295z"/>
	<path fill="#FFFFFF" d="M155.05,14.058V10.06h-1.5V9.525h3.601v0.535h-1.5v3.998H155.05z M157.736,14.058V9.525h0.912l1.076,3.208
		c0.098,0.299,0.161,0.526,0.214,0.674c0.048-0.165,0.125-0.41,0.241-0.729l1.073-3.152h0.819v4.533h-0.574v-3.793l-1.318,3.793
		h-0.553l-1.301-3.862v3.862H157.736z"/>
	<path fill="none" stroke="#444343" stroke-width="0.216" stroke-miterlimit="2.6131" d="M155.05,14.058V10.06h-1.5V9.525h3.601
		v0.535h-1.5v3.998H155.05z M157.736,14.058V9.525h0.912l1.076,3.208c0.098,0.299,0.161,0.526,0.214,0.674
		c0.048-0.165,0.125-0.41,0.241-0.729l1.073-3.152h0.819v4.533h-0.574v-3.793l-1.318,3.793h-0.553l-1.301-3.862v3.862H157.736z"/>
</g>
</svg>
